<svg width="61" height="85" viewBox="0 0 61 85" fill="none" xmlns="http://www.w3.org/2000/svg">
<path d="M30.8218 84.7313C50.345 84.7313 61.0001 79.752 61.0001 77.1871V60.3792C54.6507 64.1867 42.6843 66.1599 30.8218 66.1599C18.9598 66.1599 6.9922 64.1867 0.643555 60.3792L0.644512 77.1861C0.644512 79.752 11.2994 84.7313 30.8228 84.7313H30.8218Z" fill="#3134DB"/>
<path d="M61.0001 7.5442C61.0001 11.7108 47.4884 15.0894 30.8218 15.0894C14.1553 15.0894 0.643555 11.7108 0.643555 7.5442C0.643555 3.37762 14.1543 0 30.8218 0C47.4894 0 61.0001 3.37762 61.0001 7.5442Z" fill="#8665CB"/>
<path d="M30.8218 61.5161C50.345 61.5161 61.0001 56.5368 61.0001 53.9719V37.1649C54.6507 40.9715 42.6843 42.9447 30.8218 42.9447C18.9598 42.9447 6.9922 40.9715 0.643555 37.1639L0.644512 53.9719C0.644512 56.5368 11.2994 61.5161 30.8228 61.5161H30.8218Z" fill="#009EE1"/>
<path d="M30.8218 38.3034C50.345 38.3034 61.0001 33.324 61.0001 30.7592V13.9512C54.6507 17.7587 42.6843 19.7319 30.8218 19.7319C18.9598 19.7319 6.9922 17.7587 0.643555 13.9512L0.644512 30.178V30.7582C0.644512 33.3241 11.2994 38.3034 30.8228 38.3034L30.8218 38.3034Z" fill="#8665CB"/>
</svg>
