<svg width="96" height="48" viewBox="0 0 96 48" fill="none" xmlns="http://www.w3.org/2000/svg">
<path d="M72.2695 4.31458C76.3536 9.73821 78.8034 16.447 78.8034 23.7303C78.8034 31.0156 76.3534 37.7263 72.2695 43.146C81.3206 38.9275 89.3492 32.5653 95.4609 24.4521L95.9999 23.7305L95.4609 23.009C89.3492 14.8958 81.3167 8.53545 72.2695 4.31507V4.31458Z" fill="#8665CB"/>
<path d="M0.538953 23.009L0 23.7305L0.538953 24.4521C6.65065 32.5653 14.6792 38.9276 23.7303 43.146C19.6462 37.7263 17.1945 31.0195 17.1945 23.7303C17.1945 16.4431 19.6445 9.73431 23.7284 4.31458C14.6831 8.53506 6.64869 14.8953 0.538953 23.0086V23.009Z" fill="#8665CB"/>
<path d="M58.2473 23.7303C58.2473 29.0926 53.6601 33.4382 48.0001 33.4382C42.3418 33.4382 37.7529 29.0924 37.7529 23.7303C37.7529 18.3698 42.3419 14.0225 48.0001 14.0225C53.6603 14.0225 58.2473 18.3699 58.2473 23.7303Z" fill="#009EE1"/>
<path d="M48.0001 0C34.6206 0 23.7305 10.6481 23.7305 23.7303C23.7305 36.8126 34.6206 47.4607 48.0001 47.4607C61.3797 47.4607 72.2698 36.8126 72.2698 23.7303C72.2698 10.6481 61.3797 0 48.0001 0ZM48.0001 40.6816C38.4407 40.6816 30.6637 33.0773 30.6637 23.7303C30.6637 14.3833 38.4407 6.77911 48.0001 6.77911C57.5596 6.77911 65.3366 14.3833 65.3366 23.7303C65.3366 33.0773 57.5596 40.6816 48.0001 40.6816Z" fill="#3134DB"/>
</svg>
