<svg width="100" height="82" viewBox="0 0 100 82" fill="none" xmlns="http://www.w3.org/2000/svg">
<path d="M34.1214 1.89148C29.0784 1.89148 24.9802 5.51674 24.35 10.2441C25.1376 10.2441 25.7687 11.0317 25.7687 11.8202C25.7687 16.3902 29.5513 20.1728 34.1213 20.1728C35.0672 20.1728 35.6974 20.803 35.6974 21.7489C35.6974 22.6947 35.0672 23.325 34.1213 23.325C27.817 23.325 22.6164 18.1238 22.6164 11.8201V11.5045C22.1435 11.5045 21.6706 11.3472 21.1977 11.3472C12.5294 11.3472 7.80119 20.4884 11.5837 27.5803H11.8993C13.6328 27.5803 15.3661 27.8958 16.9423 28.5261C17.7299 28.8417 18.0455 29.7867 17.7299 30.5752C17.4144 31.2054 16.9423 31.521 16.3112 31.521C16.1538 31.521 15.8382 31.521 15.6809 31.3637C14.4203 30.8908 13.1588 30.576 11.8983 30.576C11.1107 30.576 10.4796 29.9458 10.3222 29.1573C4.49059 29.9449 0.550781 34.8305 0.550781 40.3474C0.550781 46.0206 4.80628 51.0645 10.9525 51.5375C10.9525 51.2219 11.1098 50.9072 11.268 50.5916C13.6317 47.5977 17.257 45.7059 21.1968 45.7059C22.1426 45.7059 22.7729 46.3362 22.7729 47.282C22.7729 48.2278 22.1426 48.8581 21.1968 48.8581C18.3602 48.8581 15.5235 50.1187 13.7892 52.4834C13.4736 52.9563 13.0016 53.1137 12.5287 53.1137C12.2131 53.1137 11.8984 52.9563 11.741 52.7981C10.7952 54.3742 10.3223 56.2649 10.3223 58.3141C10.3223 63.83 14.4203 68.401 19.7781 69.1887C19.7781 68.4011 20.5657 67.7699 21.3542 67.7699C24.3481 67.7699 27.1858 66.3512 28.9192 63.9874C29.3922 63.3571 30.338 63.1998 31.1256 63.6718C31.7559 64.1447 31.9132 65.2479 31.4412 65.8782C29.7077 68.2419 27.1857 69.9762 24.3491 70.6067C25.1367 75.3351 29.2348 78.9593 34.1205 78.9593C39.6365 78.9593 44.0493 74.5465 44.0493 69.0305L44.0502 11.8207C44.0502 6.3047 39.6374 1.89193 34.1214 1.89193L34.1214 1.89148ZM21.1979 34.9873C20.2521 34.9873 19.6218 34.357 19.6218 33.4111C19.6218 32.4653 20.2521 31.835 21.1979 31.835C24.5075 31.835 27.6598 30.1016 29.3932 27.1066C29.8661 26.319 30.812 26.1607 31.5996 26.4763C32.3872 26.9492 32.5454 27.8951 32.2299 28.6827C31.5996 29.6285 30.9693 30.5735 30.0235 31.362C31.1267 32.4652 32.0725 33.7257 32.5456 35.1446C32.8611 35.9322 32.3882 36.878 31.4424 37.1936H30.9695C30.3392 37.1936 29.7089 36.7207 29.3933 36.0904C29.0778 34.9872 28.2902 34.0414 27.3443 33.2538C25.4535 34.357 23.4045 34.9873 21.1981 34.9873L21.1979 34.9873ZM36.4853 56.4209C36.0124 57.2085 35.0666 57.3667 34.2789 57.0512C31.4423 55.3177 27.6598 55.6324 25.1377 57.5241C24.8221 57.6814 24.5074 57.8396 24.1919 57.8396C23.719 57.8396 23.246 57.6823 22.9313 57.2094C22.4584 56.5791 22.6158 55.4759 23.2469 55.003C24.823 53.8998 26.3992 53.1122 28.2899 52.7966C28.4473 50.1172 29.3931 47.5954 31.1265 45.5472C31.7568 44.9169 32.7026 44.7596 33.3329 45.3899C33.9632 46.0201 34.1205 46.966 33.4903 47.5962C32.2297 49.015 31.5994 50.7485 31.4412 52.6392C33.0173 52.7966 34.5935 53.2695 36.0113 54.058C36.6424 54.6874 36.8007 55.6332 36.4851 56.4208L36.4853 56.4209Z" fill="#8665CB"/>
<path d="M68.4803 72.1812C65.9583 72.1812 63.7519 74.2302 63.7519 76.9097L59.9693 78.1702L53.9804 68.5562V29.1559L59.0234 34.1989C59.339 34.5144 59.6537 34.6718 60.1266 34.6718H62.0174C62.6477 36.5626 64.3811 37.8241 66.4302 37.8241C69.1095 37.8241 71.1586 35.775 71.1586 33.0956C71.1586 30.4162 69.1096 28.3672 66.4302 28.3672C64.3811 28.3672 62.6477 29.6277 62.0174 31.5195H60.9142L54.1378 24.743V11.5047L62.4904 4.88557L67.6916 5.6732C68.0071 7.87958 70.0552 9.61301 72.2616 9.61301C72.5772 9.61301 72.8919 9.61301 73.2075 9.45566L76.517 14.9716L74.7836 16.8624C74.3107 16.7051 73.6804 16.5469 73.0501 16.5469C70.528 16.5469 68.3216 18.5959 68.3216 21.2753C68.3216 23.9547 70.3707 26.0038 73.0501 26.0038C75.7295 26.0038 77.7786 23.9547 77.7786 21.2753C77.7786 20.4877 77.6212 19.6992 77.1483 19.0689L79.6703 16.2323C80.1432 15.7594 80.1432 14.9718 79.8277 14.3415L75.8879 7.72235C76.5181 6.93473 76.9911 5.83153 76.9911 4.72845C76.9911 2.04911 74.942 0 72.2626 0C70.5291 0 68.953 0.945847 68.1646 2.36366L62.1757 1.41781C61.7028 1.41781 61.2298 1.41781 60.9152 1.73338L51.4594 9.29845C51.1438 9.61402 50.8291 10.0861 50.8291 10.559V69.0293C50.8291 69.3449 50.9864 69.6596 50.9864 69.817L57.9213 80.8489C58.2369 81.3218 58.7089 81.6365 59.3401 81.6365C59.4974 81.6365 59.6556 81.6365 59.813 81.4792L64.6987 79.7457C65.4863 80.8489 66.9051 81.4792 68.324 81.4792C71.0033 81.4792 73.0524 79.2728 73.0524 76.7507C73.0506 74.388 71.0025 72.1816 68.4805 72.1816L68.4803 72.1812Z" fill="#3134DB"/>
<path d="M96.6902 42.2377V36.2488C96.6902 35.7759 96.5329 35.303 96.0599 34.9883L86.2885 27.1086L86.4458 21.9075C88.3366 21.2772 89.7554 19.5438 89.7554 17.4947C89.7554 14.9726 87.7064 12.7662 85.0269 12.7662C82.3476 12.7662 80.2985 14.9726 80.2985 17.4947C80.2985 19.5437 81.559 21.1199 83.2924 21.9075L83.135 27.4234L80.7714 30.5757C80.2985 30.4184 79.8255 30.4184 79.3526 30.4184C76.8306 30.4184 74.6242 32.4674 74.6242 35.1468C74.6242 37.8262 76.6732 39.8753 79.3526 39.8753C82.032 39.8753 84.0811 37.8262 84.0811 35.1468C84.0811 34.201 83.7655 33.256 83.2935 32.4675L84.8696 30.2611L93.3803 37.0375V42.2387C91.4895 42.869 90.228 44.6024 90.228 46.6515V47.2818L83.9236 50.5913L75.4138 48.5423C75.2564 46.1786 73.2074 44.2868 70.6853 44.2868C68.1633 44.2868 65.9569 46.3358 65.9569 49.0153C65.9569 51.5373 68.1633 53.7437 70.6853 53.7437C72.2614 53.7437 73.8376 52.9561 74.6251 51.6947L83.4507 53.9011L83.9236 59.417C82.3475 60.2046 81.2443 61.7807 81.2443 63.6725V63.8299L72.4187 67.2967L66.7455 64.1444V63.3568C66.7455 60.6774 64.6964 58.6283 62.017 58.6283C59.3376 58.6283 57.2886 60.6774 57.2886 63.3568C57.2886 66.0362 59.3376 68.0852 62.017 68.0852C63.2776 68.0852 64.2234 67.6123 65.1693 66.8247L71.6312 70.2916C71.7885 70.4489 72.1041 70.4489 72.4188 70.4489C72.5762 70.4489 72.8917 70.4489 73.0491 70.2916L82.6631 66.509C83.4507 67.4549 84.7121 68.0851 86.1299 68.0851C88.8093 68.0851 90.8584 66.0361 90.8584 63.3567C90.8584 61.1503 89.2823 59.2587 87.3915 58.7866L86.7612 52.6404L92.1199 49.8038C92.9075 50.5914 94.0107 51.0644 95.2722 51.0644C97.7943 51.0644 100.001 49.0153 100.001 46.3359C99.8416 44.6015 98.581 42.8681 96.6902 42.2379L96.6902 42.2377Z" fill="#009EE1"/>
</svg>
