<svg width="78" height="78" viewBox="0 0 78 78" fill="none" xmlns="http://www.w3.org/2000/svg">
<path d="M10.8684 31.9867H19.3666C19.8598 31.9867 20.2594 32.387 20.2594 32.8795V36.0553C20.2594 36.5485 19.8598 36.9481 19.3666 36.9481H10.8684C10.3752 36.9481 9.97559 36.5485 9.97559 36.0553V32.8795C9.97559 32.6429 10.0699 32.4156 10.2372 32.2483C10.4045 32.081 10.6318 31.9867 10.8684 31.9867Z" fill="#3F41D2"/>
<path d="M26.7912 31.9867H35.2895C35.7827 31.9867 36.1823 32.4799 36.1823 32.8795V36.0553C36.1823 36.5485 35.7827 36.9481 35.2895 36.9481H26.7912C26.298 36.9481 25.8984 36.4549 25.8984 36.0553V32.8795C25.8984 32.3863 26.298 31.9867 26.7912 31.9867Z" fill="#3F41D2"/>
<path d="M42.7147 31.9867H51.213C51.7062 31.9867 52.1058 32.387 52.1058 32.8795V36.0553C52.1058 36.5485 51.7062 36.9481 51.213 36.9481H42.7153C42.2221 36.9481 41.8218 36.5485 41.8218 36.0553V32.8795C41.8218 32.6429 41.9161 32.4156 42.0834 32.2483C42.2507 32.081 42.478 31.9867 42.7146 31.9867H42.7147Z" fill="#3F41D2"/>
<path d="M58.6369 31.9867H67.1346C67.6278 31.9867 68.0274 32.387 68.0274 32.8795V36.0553C68.0274 36.5485 67.6278 36.9481 67.1346 36.9481H58.6369C58.1437 36.9481 57.7441 36.5485 57.7441 36.0553V32.8795C57.7441 32.6429 57.8378 32.4156 58.0058 32.2483C58.173 32.081 58.4003 31.9867 58.6369 31.9867Z" fill="#3F41D2"/>
<path d="M10.8684 41.9049H19.3666C19.8598 41.9049 20.2594 42.3045 20.2594 42.7977V45.9735V45.9728C20.2594 46.466 19.8598 46.8663 19.3666 46.8663H10.8684C10.3752 46.8663 9.97559 46.466 9.97559 45.9735V42.7977C9.97559 42.5611 10.0699 42.3338 10.2372 42.1665C10.4045 41.9986 10.6318 41.9049 10.8684 41.9049V41.9049Z" fill="#3F41D2"/>
<path d="M26.7912 41.9049H35.2895C35.7827 41.9049 36.1823 42.3045 36.1823 42.7977V45.9735C36.1823 46.466 35.7827 46.8663 35.2895 46.8663H26.7912C26.298 46.8663 25.8984 46.466 25.8984 45.9735V42.7977C25.8984 42.5611 25.9928 42.3338 26.1601 42.1665C26.3273 41.9985 26.5546 41.9049 26.7912 41.9049Z" fill="#3F41D2"/>
<path d="M10.8684 51.8229H19.3666C19.8598 51.8229 20.2594 52.2232 20.2594 52.7157V55.8915C20.2594 56.1281 20.1651 56.3554 19.9978 56.5226C19.8305 56.6906 19.6032 56.7843 19.3666 56.7843H10.8684C10.3752 56.7843 9.97559 56.3847 9.97559 55.8915V52.7157C9.97559 52.4791 10.0699 52.2518 10.2372 52.0845C10.4045 51.9172 10.6318 51.8229 10.8684 51.8229Z" fill="#3F41D2"/>
<path d="M26.7912 51.8229H35.2895C35.7827 51.8229 36.1823 52.2232 36.1823 52.7157V55.8915C36.1823 56.3847 35.7827 56.7843 35.2895 56.7843H26.7912C26.298 56.7843 25.8984 56.3847 25.8984 55.8915V52.7157C25.8984 52.4791 25.9928 52.2518 26.1601 52.0845C26.3273 51.9172 26.5546 51.8229 26.7912 51.8229Z" fill="#3F41D2"/>
<path d="M26.7912 22.0687H35.2895C35.7827 22.0687 36.1823 22.4683 36.1823 22.9615V26.1373C36.1823 26.6298 35.7827 27.0301 35.2895 27.0301H26.7912C26.298 27.0301 25.8984 26.6298 25.8984 26.1373V22.9615C25.8984 22.7249 25.9928 22.4976 26.1601 22.3304C26.3273 22.1624 26.5546 22.0687 26.7912 22.0687Z" fill="#3F41D2"/>
<path d="M42.7146 22.0687H51.2123C51.7055 22.0687 52.1051 22.4683 52.1051 22.9615V26.1368C52.1051 26.63 51.7055 27.0303 51.2123 27.0303H42.7141C42.2216 27.0303 41.8213 26.63 41.8213 26.1375V22.9617C41.8213 22.7251 41.9156 22.4978 42.0829 22.3305C42.2509 22.1625 42.4775 22.0689 42.7148 22.0689L42.7146 22.0687Z" fill="#3F41D2"/>
<path d="M58.6369 22.0687H67.1346C67.6278 22.0687 68.0274 22.4683 68.0274 22.9615V26.1373V26.1366C68.0274 26.6298 67.6278 27.0301 67.1346 27.0301H58.6369C58.1437 27.0301 57.7441 26.6298 57.7441 26.1373V22.9615C57.7441 22.4683 58.1437 22.0687 58.6369 22.0687Z" fill="#3F41D2"/>
<path d="M41.8218 42.7978V45.4018C42.8468 44.1116 44.0113 42.9386 45.2944 41.905H42.7153C42.2221 41.905 41.8218 42.3046 41.8218 42.7978L41.8218 42.7978Z" fill="#3F41D2"/>
<path d="M10.1388 61.7428C8.60056 61.7414 7.12587 61.1295 6.03873 60.0423C4.95079 58.9543 4.33891 57.4797 4.33748 55.9422V17.1116H73.6652V42.4521C75.3579 43.9232 76.8182 45.6409 77.9984 47.548V10.1338C77.9956 7.44679 76.9269 4.87139 75.027 2.9714C73.127 1.07141 70.5516 0.00274486 67.8646 0H10.1385C7.45143 0.00285922 4.87529 1.0715 2.9753 2.9714C1.07531 4.87139 0.00665111 7.44679 0.00390625 10.1338V55.9418C0.00676547 58.6288 1.0754 61.2042 2.9753 63.1042C4.87529 65.0042 7.45143 66.0729 10.1385 66.0756H38.1305C37.6659 64.6675 37.3442 63.2157 37.1719 61.7424L10.1388 61.7428ZM60.7796 4.33321H61.4222H61.4215C62.6559 4.44401 63.7438 5.1867 64.2979 6.29469C64.8519 7.40264 64.7925 8.71858 64.1413 9.77297C63.4902 10.8266 62.3393 11.4685 61.1006 11.4685C59.8619 11.4685 58.7109 10.8266 58.0598 9.77297C57.4086 8.71863 57.3493 7.40269 57.9033 6.29469C58.4573 5.18673 59.5452 4.44411 60.7797 4.33321H60.7796ZM16.5819 4.33321H17.2245C18.4583 4.44401 19.5463 5.1867 20.1002 6.29469C20.6549 7.40264 20.5956 8.71858 19.9437 9.77297C19.2925 10.8266 18.1423 11.4685 16.9029 11.4685C15.6642 11.4685 14.5132 10.8266 13.8622 9.77297C13.211 8.71863 13.1516 7.40269 13.7056 6.29469C14.2596 5.18673 15.3482 4.44411 16.582 4.33321H16.5819Z" fill="#8A6BC4"/>
<path d="M59.1547 40.3036C54.1568 40.3036 49.3632 42.2894 45.8293 45.8233C42.2954 49.3572 40.3096 54.1508 40.3096 59.1487C40.3096 64.1465 42.2954 68.9401 45.8293 72.474C49.3632 76.0079 54.1568 77.9937 59.1547 77.9937C64.1525 77.9937 68.9461 76.0079 72.48 72.474C76.0139 68.9401 77.9997 64.1465 77.9997 59.1487C77.9997 54.1508 76.0139 49.3572 72.48 45.8233C68.9461 42.2894 64.1525 40.3036 59.1547 40.3036ZM59.1547 74.5264C55.076 74.5264 51.1638 72.906 48.2803 70.0225C45.396 67.1382 43.7756 63.2268 43.7756 59.1481C43.7763 55.0694 45.3961 51.1573 48.2803 48.2737C51.1646 45.3894 55.076 43.7691 59.1547 43.7691C63.2333 43.7691 67.1448 45.3895 70.029 48.2737C72.9133 51.158 74.533 55.0694 74.533 59.1481C74.5287 63.2253 72.9068 67.1347 70.0239 70.0174C67.1411 72.9009 63.2319 74.5221 59.1547 74.5264Z" fill="#0F9CD7"/>
<path d="M68.6373 57.4169H60.8881L60.8888 48.0465C60.8881 47.8349 60.7172 47.6641 60.5064 47.6641H57.8036C57.7028 47.6641 57.6056 47.7041 57.5341 47.7763C57.4619 47.8478 57.4219 47.945 57.4219 48.0465V60.5012C57.4219 60.6027 57.4619 60.6999 57.5341 60.7714C57.6056 60.8436 57.7028 60.8836 57.8036 60.8836H68.6372C68.8487 60.8836 69.0196 60.7128 69.0196 60.5012V57.7992C69.0196 57.5883 68.8487 57.4167 68.6372 57.4167L68.6373 57.4169Z" fill="#0F9CD7"/>
</svg>
