<svg width="38" height="37" viewBox="0 0 38 37" fill="none" xmlns="http://www.w3.org/2000/svg">
<path d="M22.6551 18.4076C22.6551 20.2991 21.1218 21.8323 19.2304 21.8323C17.3389 21.8323 15.8057 20.2991 15.8057 18.4076C15.8057 16.5162 17.3389 14.9829 19.2304 14.9829C21.1218 14.9829 22.6551 16.5162 22.6551 18.4076Z" fill="white"/>
<path d="M27.3716 12.2487C27.2043 11.7952 26.9373 11.3847 26.5904 11.0478C26.2535 10.7009 25.8433 10.434 25.3896 10.2666C25.0216 10.1237 24.4688 9.95359 23.4506 9.90724C22.3491 9.85701 22.0189 9.84619 19.2304 9.84619C16.4416 9.84619 16.1114 9.85674 15.0102 9.90697C13.992 9.95359 13.4389 10.1237 13.0712 10.2666C12.6175 10.434 12.207 10.7009 11.8704 11.0478C11.5235 11.3847 11.2565 11.7949 11.0889 12.2487C10.946 12.6166 10.7759 13.1697 10.7295 14.1879C10.6793 15.2891 10.6685 15.6194 10.6685 18.4081C10.6685 21.1966 10.6793 21.5269 10.7295 22.6283C10.7759 23.6465 10.946 24.1993 11.0889 24.5673C11.2565 25.0211 11.5232 25.4312 11.8701 25.7681C12.207 26.115 12.6172 26.382 13.0709 26.5493C13.4389 26.6925 13.992 26.8627 15.0102 26.909C16.1114 26.9592 16.4414 26.9698 19.2301 26.9698C22.0192 26.9698 22.3494 26.9592 23.4503 26.909C24.4685 26.8627 25.0216 26.6925 25.3896 26.5493C26.3004 26.198 27.0203 25.4781 27.3716 24.5673C27.5145 24.1993 27.6846 23.6465 27.7313 22.6283C27.7815 21.5269 27.792 21.1966 27.792 18.4081C27.792 15.6194 27.7815 15.2891 27.7313 14.1879C27.6849 13.1697 27.5148 12.6166 27.3716 12.2487ZM19.2304 23.7706C16.2685 23.7706 13.8674 21.3698 13.8674 18.4078C13.8674 15.4459 16.2685 13.0451 19.2304 13.0451C22.192 13.0451 24.5931 15.4459 24.5931 18.4078C24.5931 21.3698 22.192 23.7706 19.2304 23.7706ZM24.8051 14.0864C24.113 14.0864 23.5519 13.5252 23.5519 12.8331C23.5519 12.141 24.113 11.5798 24.8051 11.5798C25.4973 11.5798 26.0584 12.141 26.0584 12.8331C26.0581 13.5252 25.4973 14.0864 24.8051 14.0864Z" fill="white"/>
<path d="M19.2301 0C9.0653 0 0.822266 8.24303 0.822266 18.4079C0.822266 28.5727 9.0653 36.8157 19.2301 36.8157C29.395 36.8157 37.638 28.5727 37.638 18.4079C37.638 8.24303 29.395 0 19.2301 0ZM29.7365 22.7657C29.6854 23.891 29.5065 24.6592 29.2452 25.3316C28.6961 26.7514 27.5737 27.8739 26.1539 28.423C25.4817 28.6842 24.7132 28.8628 23.5883 28.9142C22.4611 28.9656 22.101 28.978 19.2304 28.978C16.3595 28.978 15.9997 28.9656 14.8722 28.9142C13.7473 28.8628 12.9788 28.6842 12.3067 28.423C11.6011 28.1575 10.9624 27.7416 10.4343 27.2037C9.89671 26.6759 9.48072 26.0369 9.21529 25.3316C8.95407 24.6594 8.77515 23.891 8.72403 22.766C8.67207 21.6386 8.65999 21.2785 8.65999 18.4079C8.65999 15.5372 8.67207 15.1772 8.72375 14.05C8.77487 12.9248 8.95351 12.1566 9.21473 11.4841C9.48016 10.7788 9.89643 10.1398 10.4343 9.61205C10.9621 9.07416 11.6011 8.65818 12.3064 8.39274C12.9788 8.13152 13.747 7.95288 14.8722 7.90148C15.9994 7.85008 16.3595 7.83772 19.2301 7.83772C22.1007 7.83772 22.4608 7.85008 23.588 7.90176C24.7132 7.95288 25.4814 8.13152 26.1539 8.39246C26.8592 8.6579 27.4982 9.07416 28.0262 9.61205C28.5638 10.1401 28.9801 10.7788 29.2452 11.4841C29.5067 12.1566 29.6854 12.9248 29.7368 14.05C29.7882 15.1772 29.8003 15.5372 29.8003 18.4079C29.8003 21.2785 29.7882 21.6386 29.7365 22.7657Z" fill="white"/>
</svg>
