<svg width="40" height="40" viewBox="0 0 40 40" fill="none" xmlns="http://www.w3.org/2000/svg">
<rect x="0.196899" y="0.493408" width="39.0656" height="39.0656" rx="19.5328" fill="white"/>
<path d="M14.0933 15.2643C15.1756 15.2643 16.053 14.3869 16.053 13.3046C16.053 12.2223 15.1756 11.345 14.0933 11.345C13.011 11.345 12.1336 12.2223 12.1336 13.3046C12.1336 14.3869 13.011 15.2643 14.0933 15.2643Z" fill="#06BF97"/>
<path d="M17.9033 16.7494V27.6216H21.279V22.2451C21.279 20.8264 21.5459 19.4524 23.3049 19.4524C25.0398 19.4524 25.0613 21.0745 25.0613 22.3346V27.6225H28.4388V21.6602C28.4388 18.7315 27.8082 16.4807 24.3851 16.4807C22.7416 16.4807 21.6399 17.3826 21.1894 18.2362H21.1438V16.7494H17.9033ZM12.4023 16.7494H15.7834V27.6216H12.4023V16.7494Z" fill="#06BF97"/>
</svg>
