<svg width="32" height="32" viewBox="0 0 32 32" fill="none" xmlns="http://www.w3.org/2000/svg">
<rect y="0.798096" width="31.07" height="31.07" rx="5" fill="#06BF97"/>
<path d="M24.4317 11.6574C24.3751 11.5569 24.2909 11.4746 24.1891 11.4202C24.0873 11.3658 23.9721 11.3415 23.857 11.3502L9.70556 12.3831C9.58303 12.3937 9.46666 12.4414 9.37191 12.5197C9.27716 12.5979 9.20851 12.7032 9.17508 12.8214C9.14166 12.9397 9.14503 13.0653 9.18477 13.1816C9.2245 13.2979 9.29871 13.3994 9.39753 13.4726L13.8435 16.8878L18.5896 14.2278L19.1798 15.2818L14.4146 17.9427L15.0064 23.515C15.019 23.6356 15.0675 23.7497 15.1457 23.8425C15.224 23.9353 15.3283 24.0025 15.4451 24.0354C15.5637 24.0663 15.6888 24.0606 15.804 24.0191C15.9193 23.9775 16.0191 23.902 16.0905 23.8026L24.3812 12.3038C24.4501 12.212 24.4914 12.1024 24.5004 11.988C24.5093 11.8735 24.4855 11.7589 24.4317 11.6574Z" fill="white"/>
</svg>
